<?xml version="1.0" encoding="utf-8"?><svg xmlns="http://www.w3.org/2000/svg" xmlns:xlink="http://www.w3.org/1999/xlink"><symbol viewBox="0 0 284.929 284.929" id="icons--arrow-up" xmlns="http://www.w3.org/2000/svg"><path d="M282.082 195.285L149.028 62.24c-1.901-1.903-4.088-2.856-6.562-2.856s-4.665.953-6.567 2.856L2.856 195.285C.95 197.191 0 199.378 0 201.853c0 2.474.953 4.664 2.856 6.566l14.272 14.271c1.903 1.903 4.093 2.854 6.567 2.854s4.664-.951 6.567-2.854l112.204-112.202 112.208 112.209c1.902 1.903 4.093 2.848 6.563 2.848 2.478 0 4.668-.951 6.57-2.848l14.274-14.277c1.902-1.902 2.847-4.093 2.847-6.566.001-2.476-.944-4.666-2.846-6.569z"/></symbol><symbol viewBox="0 0 90 90" id="icons--counts-icon1" xmlns="http://www.w3.org/2000/svg"><path d="M86.27 21.69L90 17.96 72.04 0l-3.73 3.73 2.63 2.62-9.32 9.32-9.59-9.58-3.73 3.73 5.25 5.24-41.42 41.42 4.42 4.41-8.83 8.83 4.41 4.42L0 86.27 3.73 90l12.13-12.13 4.42 4.41 8.83-8.83 4.41 4.42 41.42-41.42 5.24 5.25 3.73-3.73-9.58-9.59 9.32-9.32zM20.28 74.82l-5.1-5.1 5.1-5.1 5.1 5.1zm13.24-4.41L19.59 56.48l5.33-5.33 3.21 3.22 3.73-3.73-3.21-3.22 3.77-3.77 3.21 3.22 3.73-3.73-3.21-3.22 3.77-3.77 13.93 13.93zm24.06-24.06L43.65 32.42l3.77-3.77 3.21 3.21 3.73-3.73-3.21-3.21 6.13-6.13 13.93 13.93zm13.02-21.7l-5.25-5.25 9.32-9.32 5.25 5.25z"/></symbol><symbol viewBox="0 0 75.031 88.03" id="icons--counts-icon2" xmlns="http://www.w3.org/2000/svg"><path d="M11.449 46.09a5.562 5.562 0 002.828 4.38 18.329 18.329 0 004.274 1.74 45.662 45.662 0 01-5.023 11.12 13.074 13.074 0 00-.08 13.57c3.689 6.66 11.836 11.15 20.275 11.15a17.67 17.67 0 0014.506-7.54c5.089-6.94 6.216-17.19 3.016-27.41-2.967-9.47 1-14.52 3.626-16.7a12.035 12.035 0 10-3.341-5.9c-4.959 3.64-10.681 11.82-6.677 24.61 2.525 8.07 1.752 16.28-2.024 21.43a11.039 11.039 0 01-9.107 4.79c-5.984 0-11.913-3.16-14.417-7.69a6.438 6.438 0 01-.1-6.75 52.343 52.343 0 006.181-14.29 17.915 17.915 0 005.764-1.93 5.579 5.579 0 002.894-4.22c7.867-7.13 11.5-19.98 11.708-20.73a3.343 3.343 0 00-1.653-3.84c1.089-9.65-2.472-14.5-4.621-16.48a2.423 2.423 0 00-1.019-2.45L34.512.36a1.975 1.975 0 00-2.893.77l-1.881 3.64a1.777 1.777 0 001.117 2.62l4.463 1.32a2.889 2.889 0 003.128-1.2c1.779 1.88 4.341 6.06 3.458 14.04a3.33 3.33 0 00-2.607 2.39c-1.071 3.86-4.168 11.82-8.767 16.6a5.559 5.559 0 00-4.639.26 6.332 6.332 0 01-2.9.8h-.2a6.484 6.484 0 01-3.06-.88 5.512 5.512 0 00-4.577-.38c-4.5-4.8-7.527-12.6-8.582-16.4a3.35 3.35 0 00-2.606-2.39C3.082 13.57 5.643 9.39 7.424 7.51a2.888 2.888 0 003.127 1.2l4.464-1.31a1.786 1.786 0 001.116-2.63l-1.879-3.64a1.976 1.976 0 00-2.893-.77L7.407 2.95A2.423 2.423 0 006.39 5.4C4.244 7.38.68 12.24 1.768 21.88a3.355 3.355 0 00-1.653 3.85c.209.73 3.732 13.17 11.334 20.36zm51.673-22.94a4.66 4.66 0 11-4.653 4.66 4.653 4.653 0 014.653-4.66z"/></symbol><symbol viewBox="0 0 102 89" id="icons--counts-icon3" xmlns="http://www.w3.org/2000/svg"><path d="M84.568 10.18a1.97 1.97 0 101.993 1.97 1.981 1.981 0 00-1.993-1.97zM94.919 8.2A24.631 24.631 0 0076.351 0a29 29 0 00-20.834 8.75A34.864 34.864 0 0051 14.31a34.919 34.919 0 00-4.517-5.56A29 29 0 0025.649 0C10.537 0 0 12.5 0 27.37c0 20.08 21.516 36.99 49.695 61.15a2.014 2.014 0 002.61 0C80.551 64.31 102 47.43 102 27.37A28.492 28.492 0 0094.919 8.2zM51 84.42C24.391 61.65 3.984 45.29 3.984 27.37c0-13.36 9.314-23.43 21.665-23.43a24.709 24.709 0 0117.9 7.49 29.2 29.2 0 015.629 7.69 2 2 0 001.815 1.16 2.005 2.005 0 001.817-1.16 29.229 29.229 0 015.629-7.69 24.709 24.709 0 0117.9-7.49c12.351 0 21.665 10.07 21.665 23.43C98.016 45.69 76.263 62.8 51 84.42zM91.536 17.2a2.011 2.011 0 00-2.689-.83 1.961 1.961 0 00-.839 2.66 18.1 18.1 0 012.039 8.34c0 5.7-2.74 11.74-8.623 19.02a1.956 1.956 0 00.313 2.77 2.015 2.015 0 002.8-.31c6.477-8.02 9.494-14.84 9.494-21.48a21.8 21.8 0 00-2.495-10.17zM70.125 37.77H58.969V26.73a1.986 1.986 0 00-1.992-1.97H45.023a1.986 1.986 0 00-1.992 1.97v11.04H31.875a1.98 1.98 0 00-1.992 1.97v11.82a1.98 1.98 0 001.992 1.97h11.156v11.04a1.986 1.986 0 001.992 1.97h11.954a1.986 1.986 0 001.992-1.97V53.53h11.156a1.98 1.98 0 001.992-1.97V39.74a1.98 1.98 0 00-1.992-1.97zm-1.992 11.82H56.977a1.98 1.98 0 00-1.993 1.97V62.6h-7.968V51.56a1.98 1.98 0 00-1.993-1.97H33.867v-7.88h11.156a1.98 1.98 0 001.993-1.97V28.7h7.968v11.04a1.98 1.98 0 001.993 1.97h11.156v7.88z"/></symbol><symbol viewBox="0 0 96.124 96.123" id="icons--employee-icon1" xmlns="http://www.w3.org/2000/svg"><path d="M72.089.02L59.624 0C45.62 0 36.57 9.285 36.57 23.656v10.907H24.037a1.96 1.96 0 00-1.96 1.961v15.803a1.96 1.96 0 001.96 1.96H36.57v39.876a1.96 1.96 0 001.96 1.96h16.352a1.96 1.96 0 001.96-1.96V54.287h14.654a1.96 1.96 0 001.96-1.96l.006-15.803a1.963 1.963 0 00-1.961-1.961H56.842v-9.246c0-4.444 1.059-6.7 6.848-6.7l8.397-.003a1.96 1.96 0 001.959-1.96V1.98A1.96 1.96 0 0072.089.02z"/></symbol><symbol viewBox="0 0 612 612" id="icons--employee-icon2" xmlns="http://www.w3.org/2000/svg"><path d="M612 116.258a250.714 250.714 0 01-72.088 19.772c25.929-15.527 45.777-40.155 55.184-69.411-24.322 14.379-51.169 24.82-79.775 30.48-22.907-24.437-55.49-39.658-91.63-39.658-69.334 0-125.551 56.217-125.551 125.513 0 9.828 1.109 19.427 3.251 28.606-104.326-5.24-196.835-55.223-258.75-131.174-10.823 18.51-16.98 40.078-16.98 63.101 0 43.559 22.181 81.993 55.835 104.479a125.556 125.556 0 01-56.867-15.756v1.568c0 60.806 43.291 111.554 100.693 123.104-10.517 2.83-21.607 4.398-33.08 4.398-8.107 0-15.947-.803-23.634-2.333 15.985 49.907 62.336 86.199 117.253 87.194-42.947 33.654-97.099 53.655-155.916 53.655-10.134 0-20.116-.612-29.944-1.721 55.567 35.681 121.536 56.485 192.438 56.485 230.948 0 357.188-191.291 357.188-357.188l-.421-16.253c24.666-17.593 46.005-39.697 62.794-64.861z"/></symbol><symbol viewBox="0 0 478.165 478.165" id="icons--employee-icon3" xmlns="http://www.w3.org/2000/svg"><path d="M478.165 290.794v176.742H375.638V302.549c0-41.481-14.783-69.673-51.881-69.673-28.371 0-45.107 19.087-52.578 37.456-2.69 6.615-3.507 15.879-3.507 25.024v172.159H165.246s1.375-279.328 0-308.257h102.447v43.692c-.139.359-.438.657-.578 1.056h.578v-1.056c13.687-20.999 37.934-50.925 92.385-50.925 67.581.001 118.087 44.052 118.087 138.769zM57.997 10.629C22.952 10.629 0 33.621 0 63.945c0 29.507 22.275 53.276 56.682 53.276h.618c35.822 0 58.017-23.769 58.017-53.276-.697-30.324-22.194-53.316-57.32-53.316zM6.117 467.535h102.467V159.239H6.117v308.296z"/></symbol><symbol viewBox="0 0 430.123 430.123" id="icons--employee-icon4" xmlns="http://www.w3.org/2000/svg"><path d="M412.164 246.198a199.284 199.284 0 002.45-31.148c0-110.215-89.342-199.555-199.56-199.555-10.576 0-20.995.871-31.141 2.458C165.534 6.581 143.842 0 120.595 0 53.996 0 .005 53.984.005 120.59c0 23.242 6.585 44.916 17.952 63.332-1.573 10.172-2.439 20.528-2.439 31.132 0 110.223 89.34 199.536 199.532 199.536 10.585 0 21.007-.816 31.152-2.417 18.398 11.35 40.072 17.949 63.314 17.949 66.617 0 120.602-53.998 120.602-120.602.005-23.251-6.576-44.92-17.954-63.322zM309.801 305.81c-8.442 12.153-20.843 21.65-37.047 28.479-16.237 6.847-35.428 10.254-57.59 10.254-26.562 0-48.554-4.648-65.913-14.034-12.305-6.721-22.313-15.737-30.007-26.98-7.71-11.252-11.619-22.271-11.619-33.015 0-6.338 2.417-11.85 7.122-16.344 4.754-4.527 10.877-6.796 18.104-6.796 5.92 0 11.005 1.783 15.145 5.316 4.109 3.532 7.556 8.667 10.375 15.443 3.379 7.85 7.049 14.412 10.954 19.648 3.881 5.171 9.343 9.488 16.417 12.867 6.996 3.388 16.307 5.082 27.958 5.082 15.945 0 28.831-3.449 38.693-10.253 9.912-6.866 14.673-15.22 14.673-25.314 0-8.051-2.567-14.445-7.831-19.43-5.312-5.05-12.172-8.896-20.685-11.579-8.546-2.711-20.02-5.586-34.399-8.615-19.308-4.214-35.456-9.119-48.533-14.752-13.094-5.654-23.522-13.383-31.251-23.146-7.745-9.859-11.607-22.113-11.607-36.627 0-13.84 4.077-26.217 12.239-36.989 8.158-10.802 19.961-19.07 35.351-24.829 15.336-5.757 33.391-8.637 54.075-8.637 16.541 0 30.849 1.914 42.96 5.722 12.078 3.836 22.146 8.898 30.196 15.25 7.999 6.338 13.885 13.023 17.613 20.038 3.725 7.036 5.601 13.908 5.601 20.614 0 6.235-2.417 11.89-7.127 16.846-4.709 4.963-10.733 7.493-17.768 7.47-6.342 0-11.317-1.463-14.767-4.56-3.36-2.996-6.889-7.766-10.706-14.414-4.825-9.276-10.604-16.503-17.324-21.672-6.543-5.073-17.338-7.714-32.359-7.682-13.898 0-25.018 2.84-33.411 8.394-8.445 5.643-12.482 12.19-12.501 19.861.014 4.807 1.396 8.86 4.177 12.326 2.824 3.498 6.753 6.529 11.803 9.084a81.825 81.825 0 0015.355 6.046c5.225 1.481 13.894 3.622 25.944 6.457 15.112 3.257 28.819 6.896 41.136 10.862 12.293 3.986 22.784 8.793 31.451 14.52 8.736 5.71 15.564 12.99 20.438 21.783 4.909 8.807 7.354 19.564 7.354 32.222.019 15.242-4.227 28.95-12.689 41.084z"/></symbol></svg>